<svg width="48" height="47" viewBox="0 0 48 47" fill="none" xmlns="http://www.w3.org/2000/svg">
<path d="M31.2334 40.6967L33.5668 44.7567C31.3268 45.7833 28.8768 46.46 26.3334 46.7167V42.0033C28.0601 41.7933 29.6934 41.35 31.2334 40.6967ZM5.49678 25.8333H0.783447C1.04011 28.4 1.71678 30.8267 2.74345 33.0667L6.80345 30.7333C6.15011 29.1933 5.70678 27.56 5.49678 25.8333ZM31.2334 6.30333L33.5668 2.24333C31.3268 1.21666 28.9001 0.539992 26.3334 0.283325V4.99666C28.0601 5.20666 29.6934 5.64999 31.2334 6.30333ZM42.5034 21.1667H47.2168C46.9601 18.6 46.2834 16.1733 45.2568 13.9333L41.1968 16.2667C41.8501 17.8067 42.2934 19.44 42.5034 21.1667ZM16.7668 40.6967L14.4334 44.7567C16.6734 45.7833 19.1234 46.46 21.6668 46.7167V42.0033C19.9401 41.7933 18.3068 41.35 16.7668 40.6967ZM21.6668 4.99666V0.283325C19.1001 0.539992 16.6734 1.21666 14.4334 2.24333L16.7668 6.30333C18.3068 5.64999 19.9401 5.20666 21.6668 4.99666ZM38.8401 12.23L42.9001 9.87332C41.4301 7.84332 39.6334 6.04666 37.6034 4.57666L35.2468 8.63666C36.6234 9.68666 37.8134 10.8767 38.8401 12.23ZM6.80345 16.2667L2.74345 13.9333C1.71678 16.1733 1.04011 18.6 0.783447 21.1667H5.49678C5.70678 19.44 6.15011 17.8067 6.80345 16.2667ZM42.5034 25.8333C42.2934 27.56 41.8501 29.1933 41.1968 30.7333L45.2568 33.0667C46.2834 30.8267 46.9601 28.3767 47.2168 25.8333H42.5034ZM35.2701 38.34L37.6268 42.4C39.6568 40.93 41.4534 39.1333 42.9234 37.1033L38.8634 34.7467C37.8134 36.1233 36.6234 37.3133 35.2701 38.34ZM12.7301 8.65999L10.3968 4.57666C8.34345 6.06999 6.57011 7.84332 5.10011 9.89666L9.16011 12.2533C10.1868 10.8767 11.3768 9.68666 12.7301 8.65999ZM9.16011 34.77L5.10011 37.1033C6.57011 39.1333 8.36678 40.93 10.3968 42.4L12.7534 38.34C11.3768 37.3133 10.1868 36.1233 9.16011 34.77ZM26.3334 11.8333H21.6668V24.4567L31.6768 34.4667L34.9668 31.1767L26.3334 22.5433V11.8333Z" fill="#929DB3"/>
</svg>
