<svg width="52" height="44" viewBox="0 0 52 44" fill="none" xmlns="http://www.w3.org/2000/svg">
<path d="M47 22.3966L51.6666 17.73C42.9633 9.02664 30.97 5.71331 19.7 7.67331L25.72 13.6933C33.42 13.6466 41.1433 16.54 47 22.3966ZM42.3333 27.0633C39.8133 24.5433 36.8266 22.7466 33.6533 21.6266L40.7 28.6733L42.3333 27.0633ZM19 36.3966L26 43.3966L33 36.3966C29.15 32.5233 22.8733 32.5233 19 36.3966ZM5.95665 0.556641L2.66665 3.84664L9.78331 10.9633C6.37665 12.6666 3.17998 14.9066 0.333313 17.73L4.99998 22.3966C7.86998 19.5266 11.1833 17.3566 14.73 15.91L19.9566 21.1366C16.1766 22.14 12.63 24.1233 9.66665 27.0633L14.3333 31.73C17.4833 28.58 21.59 26.97 25.7433 26.9233L42.2633 43.4433L45.5533 40.1533L5.95665 0.556641Z" fill="#929DB3"/>
</svg>
